<?xml version="1.0" encoding="UTF-8" standalone="no"?>
<!DOCTYPE svg PUBLIC "-//W3C//DTD SVG 1.1//EN"
 "http://www.w3.org/Graphics/SVG/1.1/DTD/svg11.dtd">
<!-- Generated by graphviz version 2.40.1 (20161225.0304)
 -->
<!-- Title: G Pages: 1 -->
<svg width="496pt" height="1319pt"
 viewBox="0.00 0.00 496.13 1319.00" xmlns="http://www.w3.org/2000/svg" xmlns:xlink="http://www.w3.org/1999/xlink">
<g id="graph0" class="graph" transform="scale(1 1) rotate(0) translate(4 1315)">
<title>G</title>
<polygon fill="#ffffff" stroke="transparent" points="-4,4 -4,-1315 492.1271,-1315 492.1271,4 -4,4"/>
<g id="clust1" class="cluster">
<title>cluster_Global</title>
<path fill="none" stroke="#c0c0c0" d="M107.9544,-152C107.9544,-152 468.1271,-152 468.1271,-152 474.1271,-152 480.1271,-158 480.1271,-164 480.1271,-164 480.1271,-1291 480.1271,-1291 480.1271,-1297 474.1271,-1303 468.1271,-1303 468.1271,-1303 107.9544,-1303 107.9544,-1303 101.9544,-1303 95.9544,-1297 95.9544,-1291 95.9544,-1291 95.9544,-164 95.9544,-164 95.9544,-158 101.9544,-152 107.9544,-152"/>
<text text-anchor="middle" x="288.0408" y="-1290.2" font-family="Times,serif" font-size="11.00" fill="#c0c0c0">Global</text>
</g>
<g id="clust2" class="cluster">
<title>cluster_\Oenstrom</title>
<path fill="none" stroke="#c0c0c0" d="M115.9544,-160C115.9544,-160 460.1271,-160 460.1271,-160 466.1271,-160 472.1271,-166 472.1271,-172 472.1271,-172 472.1271,-1264 472.1271,-1264 472.1271,-1270 466.1271,-1276 460.1271,-1276 460.1271,-1276 115.9544,-1276 115.9544,-1276 109.9544,-1276 103.9544,-1270 103.9544,-1264 103.9544,-1264 103.9544,-172 103.9544,-172 103.9544,-166 109.9544,-160 115.9544,-160"/>
<text text-anchor="middle" x="288.0408" y="-1263.2" font-family="Times,serif" font-size="11.00" fill="#c0c0c0">Oenstrom</text>
</g>
<g id="clust3" class="cluster">
<title>cluster_\Oenstrom\DiceGame</title>
<path fill="none" stroke="#c0c0c0" d="M392.1218,-1070C392.1218,-1070 438.1218,-1070 438.1218,-1070 444.1218,-1070 450.1218,-1076 450.1218,-1082 450.1218,-1082 450.1218,-1237 450.1218,-1237 450.1218,-1243 444.1218,-1249 438.1218,-1249 438.1218,-1249 392.1218,-1249 392.1218,-1249 386.1218,-1249 380.1218,-1243 380.1218,-1237 380.1218,-1237 380.1218,-1082 380.1218,-1082 380.1218,-1076 386.1218,-1070 392.1218,-1070"/>
<text text-anchor="middle" x="415.1218" y="-1236.2" font-family="Times,serif" font-size="11.00" fill="#c0c0c0">DiceGame</text>
</g>
<g id="clust4" class="cluster">
<title>cluster_\Oenstrom\Webshop</title>
<path fill="none" stroke="#c0c0c0" d="M378.1164,-991C378.1164,-991 452.1271,-991 452.1271,-991 458.1271,-991 464.1271,-997 464.1271,-1003 464.1271,-1003 464.1271,-1050 464.1271,-1050 464.1271,-1056 458.1271,-1062 452.1271,-1062 452.1271,-1062 378.1164,-1062 378.1164,-1062 372.1164,-1062 366.1164,-1056 366.1164,-1050 366.1164,-1050 366.1164,-1003 366.1164,-1003 366.1164,-997 372.1164,-991 378.1164,-991"/>
<text text-anchor="middle" x="415.1218" y="-1049.2" font-family="Times,serif" font-size="11.00" fill="#c0c0c0">Webshop</text>
</g>
<g id="clust5" class="cluster">
<title>cluster_\Oenstrom\Navbar</title>
<path fill="none" stroke="#c0c0c0" d="M391.3185,-912C391.3185,-912 438.925,-912 438.925,-912 444.925,-912 450.925,-918 450.925,-924 450.925,-924 450.925,-971 450.925,-971 450.925,-977 444.925,-983 438.925,-983 438.925,-983 391.3185,-983 391.3185,-983 385.3185,-983 379.3185,-977 379.3185,-971 379.3185,-971 379.3185,-924 379.3185,-924 379.3185,-918 385.3185,-912 391.3185,-912"/>
<text text-anchor="middle" x="415.1218" y="-970.2" font-family="Times,serif" font-size="11.00" fill="#c0c0c0">Navbar</text>
</g>
<g id="clust6" class="cluster">
<title>cluster_\Oenstrom\Session</title>
<path fill="none" stroke="#c0c0c0" d="M388.018,-779C388.018,-779 442.2255,-779 442.2255,-779 448.2255,-779 454.2255,-785 454.2255,-791 454.2255,-791 454.2255,-892 454.2255,-892 454.2255,-898 448.2255,-904 442.2255,-904 442.2255,-904 388.018,-904 388.018,-904 382.018,-904 376.018,-898 376.018,-892 376.018,-892 376.018,-791 376.018,-791 376.018,-785 382.018,-779 388.018,-779"/>
<text text-anchor="middle" x="415.1218" y="-891.2" font-family="Times,serif" font-size="11.00" fill="#c0c0c0">Session</text>
</g>
<g id="clust7" class="cluster">
<title>cluster_\Oenstrom\Content</title>
<path fill="none" stroke="#c0c0c0" d="M123.9544,-646C123.9544,-646 452.1271,-646 452.1271,-646 458.1271,-646 464.1271,-652 464.1271,-658 464.1271,-658 464.1271,-759 464.1271,-759 464.1271,-765 458.1271,-771 452.1271,-771 452.1271,-771 123.9544,-771 123.9544,-771 117.9544,-771 111.9544,-765 111.9544,-759 111.9544,-759 111.9544,-658 111.9544,-658 111.9544,-652 117.9544,-646 123.9544,-646"/>
<text text-anchor="middle" x="288.0408" y="-758.2" font-family="Times,serif" font-size="11.00" fill="#c0c0c0">Content</text>
</g>
<g id="clust8" class="cluster">
<title>cluster_\Oenstrom\TextFilter</title>
<path fill="none" stroke="#c0c0c0" d="M378.1164,-513C378.1164,-513 452.1271,-513 452.1271,-513 458.1271,-513 464.1271,-519 464.1271,-525 464.1271,-525 464.1271,-626 464.1271,-626 464.1271,-632 458.1271,-638 452.1271,-638 452.1271,-638 378.1164,-638 378.1164,-638 372.1164,-638 366.1164,-632 366.1164,-626 366.1164,-626 366.1164,-525 366.1164,-525 366.1164,-519 372.1164,-513 378.1164,-513"/>
<text text-anchor="middle" x="415.1218" y="-625.2" font-family="Times,serif" font-size="11.00" fill="#c0c0c0">TextFilter</text>
</g>
<g id="clust9" class="cluster">
<title>cluster_\Oenstrom\User</title>
<path fill="none" stroke="#c0c0c0" d="M381.4169,-326C381.4169,-326 448.8266,-326 448.8266,-326 454.8266,-326 460.8266,-332 460.8266,-338 460.8266,-338 460.8266,-493 460.8266,-493 460.8266,-499 454.8266,-505 448.8266,-505 448.8266,-505 381.4169,-505 381.4169,-505 375.4169,-505 369.4169,-499 369.4169,-493 369.4169,-493 369.4169,-338 369.4169,-338 369.4169,-332 375.4169,-326 381.4169,-326"/>
<text text-anchor="middle" x="415.1218" y="-492.2" font-family="Times,serif" font-size="11.00" fill="#c0c0c0">User</text>
</g>
<g id="clust10" class="cluster">
<title>cluster_\Oenstrom\Form</title>
<path fill="none" stroke="#c0c0c0" d="M392.1218,-247C392.1218,-247 438.1218,-247 438.1218,-247 444.1218,-247 450.1218,-253 450.1218,-259 450.1218,-259 450.1218,-306 450.1218,-306 450.1218,-312 444.1218,-318 438.1218,-318 438.1218,-318 392.1218,-318 392.1218,-318 386.1218,-318 380.1218,-312 380.1218,-306 380.1218,-306 380.1218,-259 380.1218,-259 380.1218,-253 386.1218,-247 392.1218,-247"/>
<text text-anchor="middle" x="415.1218" y="-305.2" font-family="Times,serif" font-size="11.00" fill="#c0c0c0">Form</text>
</g>
<g id="clust11" class="cluster">
<title>cluster_\Oenstrom\App</title>
<path fill="none" stroke="#c0c0c0" d="M392.1218,-168C392.1218,-168 438.1218,-168 438.1218,-168 444.1218,-168 450.1218,-174 450.1218,-180 450.1218,-180 450.1218,-227 450.1218,-227 450.1218,-233 444.1218,-239 438.1218,-239 438.1218,-239 392.1218,-239 392.1218,-239 386.1218,-239 380.1218,-233 380.1218,-227 380.1218,-227 380.1218,-180 380.1218,-180 380.1218,-174 386.1218,-168 392.1218,-168"/>
<text text-anchor="middle" x="415.1218" y="-226.2" font-family="Times,serif" font-size="11.00" fill="#c0c0c0">App</text>
</g>
<!-- \\Oenstrom\\DiceGame\\Round -->
<g id="node1" class="node">
<title>\\Oenstrom\\DiceGame\\Round</title>
<polygon fill="none" stroke="#000000" points="442.1218,-1222 388.1218,-1222 388.1218,-1186 442.1218,-1186 442.1218,-1222"/>
<text text-anchor="middle" x="415.1218" y="-1200.7" font-family="Courier,monospace" font-size="11.00" fill="#000000">Round</text>
</g>
<!-- \\Oenstrom\\DiceGame\\Dice -->
<g id="node2" class="node">
<title>\\Oenstrom\\DiceGame\\Dice</title>
<polygon fill="none" stroke="#000000" points="442.1218,-1168 388.1218,-1168 388.1218,-1132 442.1218,-1132 442.1218,-1168"/>
<text text-anchor="middle" x="415.1218" y="-1146.7" font-family="Courier,monospace" font-size="11.00" fill="#000000">Dice</text>
</g>
<!-- \\Oenstrom\\DiceGame\\Game -->
<g id="node3" class="node">
<title>\\Oenstrom\\DiceGame\\Game</title>
<polygon fill="none" stroke="#000000" points="442.1218,-1114 388.1218,-1114 388.1218,-1078 442.1218,-1078 442.1218,-1114"/>
<text text-anchor="middle" x="415.1218" y="-1092.7" font-family="Courier,monospace" font-size="11.00" fill="#000000">Game</text>
</g>
<!-- \\Oenstrom\\Webshop\\WebshopDao -->
<g id="node4" class="node">
<title>\\Oenstrom\\Webshop\\WebshopDao</title>
<polygon fill="none" stroke="#000000" points="456.1325,-1035 374.111,-1035 374.111,-999 456.1325,-999 456.1325,-1035"/>
<text text-anchor="middle" x="415.1218" y="-1013.7" font-family="Courier,monospace" font-size="11.00" fill="#000000">WebshopDao</text>
</g>
<!-- \\Oenstrom\\Navbar\\Navbar -->
<g id="node5" class="node">
<title>\\Oenstrom\\Navbar\\Navbar</title>
<polygon fill="none" stroke="#000000" points="442.7296,-956 387.5139,-956 387.5139,-920 442.7296,-920 442.7296,-956"/>
<text text-anchor="middle" x="415.1218" y="-934.7" font-family="Courier,monospace" font-size="11.00" fill="#000000">Navbar</text>
</g>
<!-- \\Anax\\Common\\AppInjectableInterface -->
<g id="node18" class="node">
<title>\\Anax\\Common\\AppInjectableInterface</title>
<ellipse fill="none" stroke="#000000" cx="151.0582" cy="-126" rx="151.1164" ry="18"/>
<text text-anchor="middle" x="151.0582" y="-121.8" font-family="Times,serif" font-size="14.00" fill="#c0c0c0">\Anax\Common\AppInjectableInterface</text>
</g>
<!-- \\Oenstrom\\Navbar\\Navbar&#45;&gt;\\Anax\\Common\\AppInjectableInterface -->
<g id="edge1" class="edge">
<title>\\Oenstrom\\Navbar\\Navbar&#45;&gt;\\Anax\\Common\\AppInjectableInterface</title>
<path fill="none" stroke="#000000" stroke-dasharray="1,5" d="M387.4561,-926.1262C379.5324,-921.5136 371.573,-915.5028 366.1164,-908 294.5975,-809.6607 333.4295,-759.495 302.1164,-642 252.1834,-454.6383 183.8232,-231.5882 159.819,-154.1344"/>
<polygon fill="none" stroke="#000000" points="163.0397,-152.7037 156.7328,-144.1905 156.3542,-154.7786 163.0397,-152.7037"/>
</g>
<!-- \\Anax\\Common\\ConfigureInterface -->
<g id="node19" class="node">
<title>\\Anax\\Common\\ConfigureInterface</title>
<ellipse fill="none" stroke="#000000" cx="151.0582" cy="-72" rx="136.1844" ry="18"/>
<text text-anchor="middle" x="151.0582" y="-67.8" font-family="Times,serif" font-size="14.00" fill="#c0c0c0">\Anax\Common\ConfigureInterface</text>
</g>
<!-- \\Oenstrom\\Navbar\\Navbar&#45;&gt;\\Anax\\Common\\ConfigureInterface -->
<g id="edge2" class="edge">
<title>\\Oenstrom\\Navbar\\Navbar&#45;&gt;\\Anax\\Common\\ConfigureInterface</title>
<path fill="none" stroke="#000000" stroke-dasharray="1,5" d="M387.4898,-927.0584C379.2668,-922.4227 371.1236,-916.1631 366.1164,-908 271.8233,-754.2758 423.2416,-232.6076 302.1164,-99 296.8882,-93.233 290.8855,-88.4306 284.3534,-84.448"/>
<polygon fill="none" stroke="#000000" points="285.6082,-81.1496 275.1408,-79.5114 282.302,-87.3196 285.6082,-81.1496"/>
</g>
<!-- \\Oenstrom\\Session\\Session -->
<g id="node6" class="node">
<title>\\Oenstrom\\Session\\Session</title>
<polygon fill="none" stroke="#000000" points="446.3296,-877 383.9139,-877 383.9139,-841 446.3296,-841 446.3296,-877"/>
<text text-anchor="middle" x="415.1218" y="-855.7" font-family="Courier,monospace" font-size="11.00" fill="#000000">Session</text>
</g>
<!-- \\Oenstrom\\Session\\Cookie -->
<g id="node7" class="node">
<title>\\Oenstrom\\Session\\Cookie</title>
<polygon fill="none" stroke="#000000" points="442.7296,-823 387.5139,-823 387.5139,-787 442.7296,-787 442.7296,-823"/>
<text text-anchor="middle" x="415.1218" y="-801.7" font-family="Courier,monospace" font-size="11.00" fill="#000000">Cookie</text>
</g>
<!-- \\Oenstrom\\Content\\ContentDao -->
<g id="node8" class="node">
<title>\\Oenstrom\\Content\\ContentDao</title>
<polygon fill="none" stroke="#000000" points="456.1325,-744 374.111,-744 374.111,-708 456.1325,-708 456.1325,-744"/>
<text text-anchor="middle" x="415.1218" y="-722.7" font-family="Courier,monospace" font-size="11.00" fill="#000000">ContentDao</text>
</g>
<!-- \\Oenstrom\\Content\\Content -->
<g id="node9" class="node">
<title>\\Oenstrom\\Content\\Content</title>
<polygon fill="none" stroke="#000000" points="182.2661,-690 119.8503,-690 119.8503,-654 182.2661,-654 182.2661,-690"/>
<text text-anchor="middle" x="151.0582" y="-668.7" font-family="Courier,monospace" font-size="11.00" fill="#000000">Content</text>
</g>
<!-- \\Oenstrom\\Content\\Blog -->
<g id="node10" class="node">
<title>\\Oenstrom\\Content\\Blog</title>
<polygon fill="none" stroke="#000000" points="442.1218,-690 388.1218,-690 388.1218,-654 442.1218,-654 442.1218,-690"/>
<text text-anchor="middle" x="415.1218" y="-668.7" font-family="Courier,monospace" font-size="11.00" fill="#000000">Blog</text>
</g>
<!-- \\Oenstrom\\Content\\Blog&#45;&gt;\\Oenstrom\\Content\\Content -->
<g id="edge5" class="edge">
<title>\\Oenstrom\\Content\\Blog&#45;&gt;\\Oenstrom\\Content\\Content</title>
<path fill="none" stroke="#000000" d="M387.8569,-672C341.4339,-672 246.784,-672 192.2536,-672"/>
<polygon fill="none" stroke="#000000" points="192.234,-668.5001 182.2339,-672 192.2339,-675.5001 192.234,-668.5001"/>
</g>
<!-- \\Oenstrom\\TextFilter\\TextFilter -->
<g id="node11" class="node">
<title>\\Oenstrom\\TextFilter\\TextFilter</title>
<polygon fill="none" stroke="#000000" points="456.1325,-611 374.111,-611 374.111,-575 456.1325,-575 456.1325,-611"/>
<text text-anchor="middle" x="415.1218" y="-589.7" font-family="Courier,monospace" font-size="11.00" fill="#000000">TextFilter</text>
</g>
<!-- \\Oenstrom\\TextFilter\\Exception -->
<g id="node12" class="node">
<title>\\Oenstrom\\TextFilter\\Exception</title>
<polygon fill="none" stroke="#000000" points="453.0326,-557 377.211,-557 377.211,-521 453.0326,-521 453.0326,-557"/>
<text text-anchor="middle" x="415.1218" y="-535.7" font-family="Courier,monospace" font-size="11.00" fill="#000000">Exception</text>
</g>
<!-- \\Exception -->
<g id="node20" class="node">
<title>\\Exception</title>
<ellipse fill="none" stroke="#000000" cx="151.0582" cy="-18" rx="48.3341" ry="18"/>
<text text-anchor="middle" x="151.0582" y="-13.8" font-family="Times,serif" font-size="14.00" fill="#c0c0c0">\Exception</text>
</g>
<!-- \\Oenstrom\\TextFilter\\Exception&#45;&gt;\\Exception -->
<g id="edge3" class="edge">
<title>\\Oenstrom\\TextFilter\\Exception&#45;&gt;\\Exception</title>
<path fill="none" stroke="#000000" d="M377.2458,-520.8617C372.9504,-517.449 369.0652,-513.508 366.1164,-509 252.1591,-334.7863 446.3595,-195.1021 302.1164,-45 278.2973,-20.2134 240.1121,-13.5542 208.0945,-13.0457"/>
<polygon fill="none" stroke="#000000" points="207.9295,-9.5462 197.942,-13.0816 207.9543,-16.5461 207.9295,-9.5462"/>
</g>
<!-- \\Oenstrom\\User\\UserAuth -->
<g id="node13" class="node">
<title>\\Oenstrom\\User\\UserAuth</title>
<polygon fill="none" stroke="#000000" points="449.4306,-478 380.8129,-478 380.8129,-442 449.4306,-442 449.4306,-478"/>
<text text-anchor="middle" x="415.1218" y="-456.7" font-family="Courier,monospace" font-size="11.00" fill="#000000">UserAuth</text>
</g>
<!-- \\Oenstrom\\User\\User -->
<g id="node14" class="node">
<title>\\Oenstrom\\User\\User</title>
<polygon fill="none" stroke="#000000" points="442.1218,-424 388.1218,-424 388.1218,-388 442.1218,-388 442.1218,-424"/>
<text text-anchor="middle" x="415.1218" y="-402.7" font-family="Courier,monospace" font-size="11.00" fill="#000000">User</text>
</g>
<!-- \\Oenstrom\\User\\Exception -->
<g id="node15" class="node">
<title>\\Oenstrom\\User\\Exception</title>
<polygon fill="none" stroke="#000000" points="453.0326,-370 377.211,-370 377.211,-334 453.0326,-334 453.0326,-370"/>
<text text-anchor="middle" x="415.1218" y="-348.7" font-family="Courier,monospace" font-size="11.00" fill="#000000">Exception</text>
</g>
<!-- \\Oenstrom\\User\\Exception&#45;&gt;\\Exception -->
<g id="edge4" class="edge">
<title>\\Oenstrom\\User\\Exception&#45;&gt;\\Exception</title>
<path fill="none" stroke="#000000" d="M378.1042,-333.9781C373.5633,-330.5178 369.3816,-326.5327 366.1164,-322 292.262,-219.4771 393.6763,-132.076 302.1164,-45 277.4677,-21.5584 239.8295,-14.7836 208.2905,-13.8816"/>
<polygon fill="none" stroke="#000000" points="208.3237,-10.3819 198.2891,-13.7814 208.2535,-17.3815 208.3237,-10.3819"/>
</g>
<!-- \\Oenstrom\\Form\\Form -->
<g id="node16" class="node">
<title>\\Oenstrom\\Form\\Form</title>
<polygon fill="none" stroke="#000000" points="442.1218,-291 388.1218,-291 388.1218,-255 442.1218,-255 442.1218,-291"/>
<text text-anchor="middle" x="415.1218" y="-269.7" font-family="Courier,monospace" font-size="11.00" fill="#000000">Form</text>
</g>
<!-- \\Oenstrom\\App\\App -->
<g id="node17" class="node">
<title>\\Oenstrom\\App\\App</title>
<polygon fill="none" stroke="#000000" points="442.1218,-212 388.1218,-212 388.1218,-176 442.1218,-176 442.1218,-212"/>
<text text-anchor="middle" x="415.1218" y="-190.7" font-family="Courier,monospace" font-size="11.00" fill="#000000">App</text>
</g>
</g>
</svg>
